<?xml version="1.0"?>
<svg xmlns="http://www.w3.org/2000/svg" width="110" height="30" viewBox="0 0 117 32" fill="none">
<path d="M16.6214 0H24.1429V7.40571H16.6214V0ZM8.26429 7.95428H15.7857V15.36H8.26429V7.95428ZM16.9 16.3657H24.4214V23.7714H16.9V16.3657ZM8.26429 16.3657H15.7857V23.7714H8.26429V16.3657ZM0 24.32H7.52143V31.7257H0V24.32Z" fill="black"/>
<path d="M112.171 16.4571C112.171 19.6571 114.679 20.0229 115.979 20.0229H116.629V18.3771H116.164C115.421 18.3771 114.029 18.1029 114.029 16.1829V11.8857H116.443V10.4229H114.029V7.67999H112.171V10.5143H110.871V11.9771H112.171V16.4571ZM102.143 18.8343C102.143 18.8343 103.443 20.2057 105.857 20.2057C107.993 20.2057 109.386 19.0171 109.386 17.3714C109.386 14.1714 104.371 14.5371 104.371 12.8C104.371 11.9771 105.207 11.6114 105.95 11.6114C107.529 11.6114 108.364 12.4343 108.364 12.4343L109.107 11.0629C109.107 11.0629 108.086 9.96571 105.95 9.96571C104 9.96571 102.421 10.9714 102.421 12.7086C102.421 15.8171 107.436 15.5429 107.436 17.28C107.436 18.1029 106.6 18.4686 105.764 18.4686C104.093 18.4686 102.979 17.3714 102.979 17.3714L102.143 18.8343ZM92.0214 15.0857C92.0214 13.0743 93.6 11.6114 95.3643 11.6114C97.2214 11.6114 98.7072 13.0743 98.7072 15.0857C98.7072 17.0971 97.2214 18.56 95.3643 18.56C93.5072 18.6514 92.0214 17.1886 92.0214 15.0857ZM90.0714 15.0857C90.0714 18.0114 92.3929 20.2057 95.3643 20.2057C98.3357 20.2057 100.657 18.1029 100.657 15.0857C100.657 12.16 98.3357 10.0571 95.3643 10.0571C92.4857 10.0571 90.0714 12.2514 90.0714 15.0857ZM79.0214 20.0229H80.8786V15.4514C80.8786 14.9943 80.8786 14.5371 81.0643 14.1714C81.4357 12.8 82.7357 11.7943 84.1286 11.7943C85.7072 11.7943 85.9857 12.8914 85.9857 14.2629V20.0229H87.8429V13.8057C87.8429 11.3371 86.8214 10.0571 84.5 10.0571C82.55 10.0571 81.3429 11.2457 80.8786 12.2514V6.49142H79.0214V20.0229ZM74.0072 20.0229H75.8643V10.3314H74.0072V20.0229ZM73.9143 8.41142H75.7714V6.49142H73.9143V8.41142ZM67.6929 20.0229H69.55V11.9771H71.8714V10.5143H69.55V10.0571C69.55 8.22857 70.85 8.04571 71.5929 8.04571H72.0572V6.49142C72.0572 6.49142 71.7786 6.39999 71.3143 6.39999C70.1072 6.39999 67.6 6.76571 67.6 9.96571V10.4229H66.3929V11.8857H67.6V20.0229H67.6929ZM56.2714 15.0857C56.2714 13.0743 57.85 11.6114 59.6143 11.6114C61.4714 11.6114 62.9572 13.0743 62.9572 15.0857C62.9572 17.0971 61.4714 18.56 59.6143 18.56C57.85 18.6514 56.2714 17.1886 56.2714 15.0857ZM54.4143 15.0857C54.4143 18.0114 56.7357 20.2057 59.7072 20.2057C62.6786 20.2057 65 18.1029 65 15.0857C65 12.16 62.6786 10.0571 59.7072 10.0571C56.7357 10.0571 54.4143 12.2514 54.4143 15.0857ZM47.9143 20.0229H49.7714V16.0914C49.7714 15.5429 49.8643 14.9029 50.05 14.3543C50.5143 12.8914 51.6286 12.0686 52.8357 12.0686C53.1143 12.0686 53.3929 12.16 53.3929 12.16V10.3314H52.9286C51.4429 10.3314 50.2357 11.4286 49.8643 12.8914V10.5143H48.0072V20.0229H47.9143ZM38.0714 15.1771C38.0714 12.7086 39.4643 11.7029 40.95 11.7029C42.6214 11.7029 43.7357 13.0743 43.7357 15.1771C43.7357 17.3714 42.4357 18.6514 40.95 18.6514C39.0929 18.6514 38.0714 16.9143 38.0714 15.1771ZM36.2143 23.7714H38.0714V19.4743V18.6514C38.0714 18.6514 38.9072 20.2057 41.0429 20.2057C43.6429 20.2057 45.5 18.1943 45.5 15.1771C45.5 12.16 43.8286 10.1486 41.2286 10.1486C38.7214 10.1486 37.8857 11.8857 37.8857 11.8857V10.3314H36.2143V23.7714Z" fill="black"/>
</svg>
